<svg xmlns="http://www.w3.org/2000/svg" width="1040" height="470" viewBox="0 0 1040 470">
  <style>
    .title { font: bold 18px Calibri, sans-serif; fill: #222; }
    .sub { font: 12px Calibri, sans-serif; fill: #555; }
    .hdr { font: 12px Calibri, sans-serif; fill: #333; }
    .txt { font: 12px Calibri, sans-serif; fill: #111; }
    .head { fill: #f3f3f3; stroke: #c9c9c9; stroke-width: 1; }
    .cell { fill: #fff; stroke: #d9d9d9; stroke-width: 1; }
    .solid { stroke: #222; stroke-width: 1.6; fill: none; }
    .dashed { stroke: #222; stroke-width: 1.3; stroke-dasharray: 6 4; fill: none; }
  </style>

  <text x="20" y="28" class="title">GroupBlock 挿入元インスタンス（C#データ展開後）</text>
  <text x="20" y="48" class="sub">本節サンプルデータから生成された GroupBlock 実体。左: 機械部品 / 右: 電材。</text>

  <g transform="translate(50,90)">
    <text x="0" y="-10" class="hdr">instance #1 (@group.Name = 機械部品)</text>

    <rect x="0" y="0" width="56" height="34" class="head"/>
    <rect x="56" y="0" width="230" height="34" class="head"/>
    <rect x="286" y="0" width="120" height="34" class="head"/>
    <rect x="406" y="0" width="120" height="34" class="head"/>

    <text x="20" y="22" class="hdr">Row</text>
    <text x="168" y="22" class="hdr">A</text>
    <text x="338" y="22" class="hdr">B</text>
    <text x="458" y="22" class="hdr">C</text>

    <rect x="0" y="34" width="56" height="52" class="head"/><rect x="56" y="34" width="230" height="52" class="cell"/><rect x="286" y="34" width="120" height="52" class="cell"/><rect x="406" y="34" width="120" height="52" class="cell"/>
    <rect x="0" y="86" width="56" height="52" class="head"/><rect x="56" y="86" width="230" height="52" class="cell"/><rect x="286" y="86" width="120" height="52" class="cell"/><rect x="406" y="86" width="120" height="52" class="cell"/>
    <rect x="0" y="138" width="56" height="52" class="head"/><rect x="56" y="138" width="230" height="52" class="cell"/><rect x="286" y="138" width="120" height="52" class="cell"/><rect x="406" y="138" width="120" height="52" class="cell"/>
    <rect x="0" y="190" width="56" height="52" class="head"/><rect x="56" y="190" width="230" height="52" class="cell"/><rect x="286" y="190" width="120" height="52" class="cell"/><rect x="406" y="190" width="120" height="52" class="cell"/>

    <text x="22" y="66" class="hdr">1</text><text x="22" y="118" class="hdr">2</text><text x="22" y="170" class="hdr">3</text><text x="22" y="222" class="hdr">4</text>

    <text x="66" y="66" class="txt">機械部品</text>
    <text x="66" y="118" class="txt">Bolt</text><text x="298" y="118" class="txt">12</text><text x="418" y="118" class="txt">35</text>
    <text x="66" y="170" class="txt">Nut</text><text x="298" y="170" class="txt">12</text><text x="418" y="170" class="txt">18</text>
    <text x="66" y="222" class="txt">Washer</text><text x="298" y="222" class="txt">12</text><text x="418" y="222" class="txt">9</text>

    <line x1="56" y1="34" x2="526" y2="34" class="solid"/>
    <line x1="56" y1="34" x2="56" y2="242" class="solid"/>
    <line x1="526" y1="34" x2="526" y2="242" class="solid"/>
    <line x1="56" y1="242" x2="526" y2="242" class="dashed"/>
  </g>

  <g transform="translate(590,90)">
    <text x="0" y="-10" class="hdr">instance #2 (@group.Name = 電材)</text>

    <rect x="0" y="0" width="56" height="34" class="head"/>
    <rect x="56" y="0" width="230" height="34" class="head"/>
    <rect x="286" y="0" width="120" height="34" class="head"/>
    <rect x="406" y="0" width="120" height="34" class="head"/>

    <text x="20" y="22" class="hdr">Row</text>
    <text x="168" y="22" class="hdr">A</text>
    <text x="338" y="22" class="hdr">B</text>
    <text x="458" y="22" class="hdr">C</text>

    <rect x="0" y="34" width="56" height="52" class="head"/><rect x="56" y="34" width="230" height="52" class="cell"/><rect x="286" y="34" width="120" height="52" class="cell"/><rect x="406" y="34" width="120" height="52" class="cell"/>
    <rect x="0" y="86" width="56" height="52" class="head"/><rect x="56" y="86" width="230" height="52" class="cell"/><rect x="286" y="86" width="120" height="52" class="cell"/><rect x="406" y="86" width="120" height="52" class="cell"/>

    <text x="22" y="66" class="hdr">1</text><text x="22" y="118" class="hdr">2</text>

    <text x="66" y="66" class="txt">電材</text>
    <text x="66" y="118" class="txt">Cable</text><text x="298" y="118" class="txt">3</text><text x="418" y="118" class="txt">980</text>

    <line x1="56" y1="34" x2="526" y2="34" class="solid"/>
    <line x1="56" y1="34" x2="56" y2="138" class="solid"/>
    <line x1="526" y1="34" x2="526" y2="138" class="solid"/>
    <line x1="56" y1="138" x2="526" y2="138" class="dashed"/>
  </g>
</svg>
